PathFileType	4	(X/Y/Z)	C:/Users/beibeiliu/ov580/test_trc/User3\sequence.40_training_dense_right.trc
DataRate	CameraRate	NumFrames	NumMarkers	Units	OrigDataRate	OrigDataStartFrame	OrigNumFrames
120	120	8	19	mm	120	252	287
Frame#	Time	ThumbCMC			ThumbMCP			ThumbIP			ThumbTip			IndexMCP			IndexPIP			IndexTip			MiddleMCP			MiddlePIP			MiddleTip			RingMCP			RingPIP			RingTip			PinkyMCP			PinkyPIP			PinkyTip			BackHand1			BackHand2			BackHand3	
		X0	Y0	Z0	X1	Y1	Z1	X2	Y2	Z2	X3	Y3	Z3	X4	Y4	Z4	X5	Y5	Z5	X6	Y6	Z6	X7	Y7	Z7	X8	Y8	Z8	X9	Y9	Z9	X10	Y10	Z10	X11	Y11	Z11	X12	Y12	Z12	X13	Y13	Z13	X14	Y14	Z14	X15	Y15	Z15	X16	Y16	Z16	X17	Y17	Z17	X18	Y18	Z18	
251	2.09167	128.891	18.788	71.9195	103.024	23.0748	51.3917	83.5699	28.5893	28.7865	69.913	26.1841	4.34275	136.158	37.3457	2.00183	110.141	47.29	-17.4028	79.609	42.4202	-21.7979	137.73	18.4758	-12.1788	108.33	23.4787	-30.8343	74.0136	21.4453	-22.8443	142.001	-3.78976	-12.8155	123.186	-1.19632	-36.6237	90.1379	3.08647	-36.6962	143.459	-31.9987	-4.24084	134.456	-27.3492	-29.0598	114.635	-21.714	-46.3776	164.295	-20.658	33.8307	166.194	-35.7304	59.3275	163.774	4.14601	55.3559	
252	2.1	129.288	19.4724	69.2581	102.006	27.9262	46.0937	82.0914	30.5418	25.0468	69.9126	23.2383	7.07267	138.13	31.0766	-4.56546	113.128	42.9711	-22.8966	83.3369	46.9015	-27.3765	139.058	14.1838	-16.7789	115.389	19.5889	-36.6562	75.2783	22.6692	-30.8985	140.345	-7.05693	-14.6442	121.922	-3.62897	-38.5086	88.9073	1.90574	-39.7599	140.142	-29.1113	-4.82513	130.642	-31.9947	-29.4863	109.586	-27.3731	-45.6664	163.114	-25.8004	33.0076	165.631	-37.5666	59.7174	165.345	0.80864	53.3542	
253	2.10833	130.66	20.7239	64.0927	103.754	24.6898	46.6383	80.9602	29.7331	19.4272	67.3815	22.2905	1.16626	138.942	31.4243	-7.58551	116.415	40.6675	-27.058	91.067	44.8401	-33.0857	138.997	11.0147	-18.4537	112.232	15.2704	-40.6649	76.1967	21.0357	-36.4098	137.524	-13.358	-17.4939	118.139	-7.80443	-36.8158	85.5884	-1.95056	-37.8232	135.929	-36.2173	-4.70859	127.763	-34.6276	-26.9957	106.108	-30.839	-44.5863	159.442	-27.1826	31.5673	166.472	-34.2346	60.585	166.344	-0.634639	51.9214	
254	2.11667	130.925	16.7291	64.1618	103.75	20.323	41.0819	85.0778	20.4241	16.7929	73.923	7.83966	-2.88944	138.026	21.8315	-14.5807	118.937	28.3555	-31.902	87.9833	36.1968	-41.0616	138.002	4.04186	-19.5625	110.549	8.73928	-40.579	72.5904	10.4093	-32.8281	134.913	-19.0351	-17.1297	112.04	-15.0065	-36.9296	79.6733	-10.4301	-32.3108	135.857	-43.291	-4.19498	124.037	-37.5104	-28.2397	104.275	-36.0501	-40.7771	160.925	-32.532	34.5166	166.119	-33.7474	59.7008	165.683	0.178903	52.2512	
255	2.125	129.128	15.5895	62.4964	102.498	15.7942	33.7599	82.9009	11.8299	9.68637	73.0551	-3.88906	-9.93518	140.062	13.2142	-13.9109	120.052	18.3175	-38.9472	90.8124	20.022	-50.4226	135.589	-6.91134	-23.1627	108.46	-5.38781	-40.7103	74.7344	-3.67285	-31.3296	134.502	-28.6812	-13.9043	107.025	-28.452	-35.5843	79.7922	-23.7375	-29.4498	136.933	-51.2977	-1.8572	125.011	-51.2086	-25.0491	106.663	-48.6422	-39.6222	160.223	-34.206	32.7956	166.392	-37.0266	64.9522	163.345	-0.490272	49.1389	
256	2.13333	128.047	8.17803	53.6023	101.452	4.69022	30.3241	84.9412	-4.10431	5.84978	77.2922	-20.5456	-7.74376	138.936	-1.8649	-19.6313	123.618	1.76046	-43.2838	97.3381	-0.0298024	-57.2488	137.222	-23.8572	-22.2667	108.666	-24.3789	-42.1844	72.0561	-20.1842	-31.7955	133.834	-38.349	-17.9698	110.29	-46.6486	-32.704	80.0473	-41.1808	-29.4744	138.305	-60.962	-2.31356	125.48	-61.8717	-23.5165	108.634	-65.2272	-36.8303	161.974	-38.0325	34.9949	167.636	-39.1236	62.9101	164.853	-9.48561	48.9172	
257	2.14167	125.525	3.90126	52.7257	100.675	-6.54474	28.6421	81.794	-17.7182	6.16617	77.2335	-39.3686	-8.49002	138.69	-12.7514	-23.6339	121.427	-20.083	-48.2237	100.032	-21.5172	-61.8309	139.203	-34.5532	-26.0085	114.298	-40.2828	-45.1079	76.2535	-41.4567	-38.6946	136.981	-52.5733	-15.9055	112.642	-61.4159	-33.5291	83.2509	-58.3257	-31.3622	138.802	-71.7417	2.35589	127.842	-77.5032	-17.7618	104.103	-80.384	-33.8663	161.447	-48.1206	33.4733	168.07	-45.6684	63.505	162.689	-14.8196	46.6283	
258	2.15	124.134	-5.80245	50.2708	95.536	-14.585	22.8299	80.8796	-32.5579	4.33143	75.758	-57.4136	-7.05155	141.197	-28.43	-22.7882	123.725	-35.4625	-50.1591	104.33	-40.5952	-62.0901	143.017	-52.0456	-24.1633	118.781	-56.2497	-50.2321	82.9474	-60.5627	-48.6157	139.661	-69.9984	-15.4859	117.55	-76.0042	-34.6436	84.8982	-75.604	-31.7117	139.482	-80.2199	7.61466	125.894	-92.835	-15.4807	101.98	-90.985	-27.9741	164.182	-54.2766	36.1109	166.762	-54.0808	64.4195	163.257	-20.0148	42.5334	
